<?xml version="1.0" encoding="utf-8"?>
<!-- Generator: Adobe Illustrator 27.5.0, SVG Export Plug-In . SVG Version: 6.00 Build 0)  -->
<svg version="1.1" xmlns="http://www.w3.org/2000/svg" xmlns:xlink="http://www.w3.org/1999/xlink" x="0px" y="0px"
	 viewBox="0 0 3710 3710" style="enable-background:new 0 0 3710 3710;" xml:space="preserve">
<g id="Background">
	<g>
		<g>
			<rect style="fill:#FFFFFF;" width="3710" height="3710"/>
		</g>
	</g>
</g>
<g id="Illustration">
	<g>
		<path style="fill:#F4F7FA;" d="M3180.741,1630.955c-74.992-490.861-382.462-1093.919-989.9-1157.03
			c0,0-461.196-56.098-915.834,28.924c-269.828,50.46-506.428,200.669-656.138,416.557
			c-149.712,215.888-199.721,479.133-139.029,730.105c39.419,163.009,66.056,331.716,58.745,499.217
			c-12.723,291.52-5.403,563.633,277.51,737.487c252.609,155.233,570.521,292.142,873.814,316.122
			c206.116,16.296,437.261-10.075,635.918-63.737C3338.225,2865.12,3255.733,2121.816,3180.741,1630.955z"/>
		<g>
			
				<linearGradient id="SVGID_1_" gradientUnits="userSpaceOnUse" x1="3197.8772" y1="-600.1906" x2="4601.7158" y2="-600.1906" gradientTransform="matrix(-0.7359 0.677 0.677 0.7359 5525.1206 -338.4369)">
				<stop  offset="0" style="stop-color:#AA80F9"/>
				<stop  offset="0.9964" style="stop-color:#6165D7"/>
			</linearGradient>
			<path style="fill:url(#SVGID_1_);" d="M2556.069,2819.365c-52.879,23.013-141.899,61.754-248.724,40.419
				c-194.213-38.79-321.204-250.973-356.526-424.716c-30.341-149.237,17.314-303.621,112.62-612.39
				c89.759-290.8,144.352-361.993,96.443-451.986c-68.3-128.296-248.36-113.409-305.597-275.024
				c-6.867-19.394-30.457-86.002-0.699-144.024c50.94-99.324,222.457-103.774,321.615-83.718
				c95.645,19.345,236.187,84.189,272.869,202.242c26.578,85.531-23.942,126.333,14.741,192.858
				c38.92,66.933,101.8,45.818,204.853,122.695c41.17,30.712,123.809,92.36,146.257,186.923
				c29.025,122.272-68.857,188.888-24.788,273.563c31.839,61.18,93.352,46.404,142.911,106.412
				c65.244,79,38.13,200.866,14.213,301.976C2918.095,2373.658,2842.113,2694.877,2556.069,2819.365z"/>
			<path style="opacity:0.16;fill:#FFFFFF;" d="M1911.878,959.092c-15.379,66.559,221.375,86.496,341.333,287.138
				c129.069,215.88,44.185,509.258,4.958,644.836c-66.927,231.32-149.576,269.982-151.608,464.181
				c-0.804,76.86-2.479,236.984,116.035,349.752c11.011,10.477,135.511,125.451,285.612,97.286
				c170.255-31.946,243.998-223.761,307.541-389.039c38.395-99.87,115.097-299.372,33.77-368.627
				c-49.715-42.337-147.037-26.252-207.957,8.083c-86.952,49.003-111.661,141.894-129.534,135.253
				c-16.097-5.981-11.536-87.098,18.87-171.673c60.819-169.166,162.862-179.21,197.366-316.606
				c4.184-16.653,35.406-149.09-42.001-237.836c-44.644-51.184-126.585-89.166-176.548-62.605
				c-56.507,30.039-47.722,129.67-67.343,129.469c-18.762-0.191-38.192-91.4-44.229-184.348
				c-8.87-136.573,18.567-163.101-3.625-234.561c-33.856-109.026-134.039-164.22-148.554-171.949
				C2109.948,865.432,1925.026,902.187,1911.878,959.092z"/>
		</g>
		<g>
			
				<linearGradient id="SVGID_00000086680301002038837930000008633902486505946556_" gradientUnits="userSpaceOnUse" x1="2105.9812" y1="1469.5033" x2="3102.0566" y2="1469.5033" gradientTransform="matrix(-0.9996 0.0279 0.0279 0.9996 5296.2485 751.8994)">
				<stop  offset="0.0036" style="stop-color:#E38DDD"/>
				<stop  offset="1" style="stop-color:#9571F6"/>
			</linearGradient>
			<path style="fill:url(#SVGID_00000086680301002038837930000008633902486505946556_);" d="M2451.976,2950.061
				c-39.025-12.303-104.723-33.016-151.977-94.183c-85.909-111.205-55.088-283.932,6.909-393.394
				c53.252-94.023,150.655-154.481,345.46-275.4c183.467-113.883,245.846-126.574,262.105-197.062
				c23.178-100.488-80.149-176.366-35.533-289.54c5.354-13.58,23.743-60.225,66.693-77.429
				c73.522-29.452,167.417,48.035,211.162,104.946c42.196,54.895,87.24,155.055,51.905,235.336
				c-25.601,58.166-71.646,56.483-81.916,110.111c-10.333,53.956,33.163,71.933,52.534,161.077
				c7.739,35.613,23.273,107.099-8.744,168.177c-41.399,78.974-124.821,69.058-140.659,134.909
				c-11.444,47.579,28.367,68.313,26.955,123.517c-1.859,72.674-73.123,125.29-133.011,168.281
				C2853.337,2880.033,2663.08,3016.616,2451.976,2950.061z"/>
			<path style="opacity:0.16;fill:#FFFFFF;" d="M2973.37,1654.184c-39.227,28.471,78.235,149.392,49.023,312.666
				c-31.431,175.674-213.489,293.207-297.623,347.522c-143.547,92.672-205.797,74.883-297.316,177.902
				c-36.221,40.772-111.682,125.715-100.748,241.273c1.016,10.736,14.128,130.263,107.6,185.081
				c106.022,62.18,234.822-6.17,345.804-65.061c67.061-35.586,201.024-106.673,189.736-181.62
				c-6.9-45.816-66.492-82.524-115.094-92.511c-69.369-14.256-125.854,23.967-132.329,12.089c-5.832-10.698,34.383-52,90.044-83.118
				c111.335-62.241,170.64-20.101,253.092-77.589c9.994-6.968,88.38-63.329,88.266-146.885
				c-0.066-48.191-26.246-106.681-65.362-115.728c-44.24-10.232-85.931,47.197-96.342,37.953
				c-9.955-8.839,22.116-66.715,62.167-119.287c58.848-77.245,85.889-78.671,107.286-127.261
				c32.644-74.133,4.713-150.333,0.542-161.229C3123.021,1696.277,3006.908,1629.842,2973.37,1654.184z"/>
		</g>
		<g>
			
				<linearGradient id="SVGID_00000013162485988367876100000009194598722603907518_" gradientUnits="userSpaceOnUse" x1="791.7099" y1="1784.8688" x2="1821.7834" y2="1784.8688" gradientTransform="matrix(0.9673 0.2536 -0.2536 0.9673 243.9598 -706.3089)">
				<stop  offset="0" style="stop-color:#AB316D"/>
				<stop  offset="1" style="stop-color:#792D3D"/>
			</linearGradient>
			<path style="fill:url(#SVGID_00000013162485988367876100000009194598722603907518_);" d="M1319.123,1696.94
				c32.47,28.837,84.105,23.713,115.328-11.445c31.225-35.157,30.215-87.036-2.254-115.872c-1.681-1.494-3.445-2.841-5.223-4.154
				c12.842-20.617,24.018-41.858,33.469-63.561c2.148,0.557,4.312,1.085,6.552,1.464c43.731,7.394,87.942-22.981,98.75-67.848
				c10.806-44.867-15.884-87.234-59.616-94.628c-2.286-0.385-4.572-0.609-6.856-0.792c1.336-23.288,0.885-46.498-1.349-69.432
				c2.267-0.635,4.535-1.311,6.797-2.148c43.274-16.028,68.219-63.518,55.712-106.07c-12.507-42.553-57.729-64.053-101.004-48.026
				c-2.218,0.822-4.352,1.777-6.471,2.76c-10.254-19.749-22.213-38.696-35.81-56.689c1.723-1.66,3.427-3.352,5.044-5.173
				c31.225-35.157,69.748-72.404,36.831-100.729c-76.148-65.525-123.187-38.857-154.413-3.699c-1.617,1.822-3.096,3.714-4.541,5.619
				c-19.474-11.375-39.699-21.013-60.521-28.865c0.725-2.219,1.421-4.451,1.977-6.751c10.805-44.865,30.381-65.545-12.295-77.626
				c-93.061-26.343-135.265,5.983-146.072,50.846c-0.565,2.346-0.967,4.678-1.332,7.004c-23.037,0.49-46.137,2.783-69.105,6.859
				c-0.452-2.246-0.944-4.49-1.596-6.715c-12.507-42.552-57.728-64.052-101.005-48.023c-43.277,16.029-68.219,63.518-55.712,106.07
				c0.64,2.18,1.422,4.266,2.228,6.334c-20.436,11.948-40.208,25.554-59.164,40.742c-1.513-1.612-3.06-3.205-4.743-4.698
				c-32.469-28.837-84.103-23.713-115.328,11.445c-31.225,35.158-30.216,87.036,2.254,115.872c1.682,1.495,3.446,2.842,5.224,4.155
				c-12.842,20.617-24.02,41.858-33.469,63.561c-2.15-0.556-4.313-1.086-6.551-1.465c-43.735-7.393-87.945,22.981-98.753,67.849
				c-10.807,44.866,15.886,87.231,59.617,94.625c2.284,0.386,4.571,0.611,6.853,0.794c-1.335,23.289-0.884,46.498,1.349,69.433
				c-2.266,0.635-4.534,1.311-6.796,2.148c-43.275,16.028-68.219,63.518-55.712,106.071c12.507,42.553,81.333,78.844,124.609,62.815
				c2.218-0.822-19.253-16.567-17.135-17.549c10.255,19.75,22.215,38.696,35.809,56.69c-1.721,1.659-3.426,3.351-5.043,5.173
				c-31.225,35.157-30.216,87.036,2.253,115.872c32.469,28.837,84.104,23.714,115.328-11.443c1.618-1.821,3.096-3.714,4.54-5.62
				c19.474,11.375,39.699,21.014,60.521,28.865c-0.725,2.22-1.421,4.452-1.975,6.752c-10.807,44.865,15.884,87.231,59.616,94.626
				c43.732,7.394,87.944-22.982,98.75-67.848c0.565-2.344,0.968-4.676,1.33-7.002c23.038-0.49,46.139-2.782,69.106-6.859
				c0.452,2.246,0.944,4.49,1.597,6.713c12.508,42.552,57.727,64.055,101.004,48.025c43.277-16.03,68.22-63.518,55.714-106.072
				c-0.642-2.178-1.422-4.264-2.229-6.331c20.435-11.948,40.208-25.554,59.163-40.742
				C1315.895,1693.855,1317.441,1695.447,1319.123,1696.94z M850.653,1580.447c-117.888-104.702-121.552-293.059-8.182-420.708
				c113.37-127.651,300.841-146.254,418.73-41.553c117.89,104.701,121.554,293.058,8.185,420.708
				C1156.015,1666.544,968.543,1685.148,850.653,1580.447z"/>
			
				<linearGradient id="SVGID_00000062153740130288474850000013215894835740232346_" gradientUnits="userSpaceOnUse" x1="1203.8577" y1="1830.653" x2="1821.7834" y2="1830.653" gradientTransform="matrix(0.9673 0.2536 -0.2536 0.9673 243.9598 -706.3089)">
				<stop  offset="0" style="stop-color:#AB316D"/>
				<stop  offset="1" style="stop-color:#792D3D"/>
			</linearGradient>
			<path style="fill:url(#SVGID_00000062153740130288474850000013215894835740232346_);" d="M1466.996,1503.372
				c43.731,7.393,87.942-22.983,98.751-67.849c10.806-44.866-15.884-87.233-59.617-94.627c-2.286-0.387-4.572-0.608-6.856-0.793
				c1.337-23.289,0.884-46.497-1.349-69.432c2.267-0.633,4.535-1.311,6.797-2.149c43.274-16.028,104.733-66.059,87.928-107.103
				c-31.897-77.9-89.945-63.019-133.22-46.992c-2.218,0.822-4.351,1.776-6.469,2.758c-10.256-19.749-22.215-38.694-35.811-56.689
				c1.723-1.659,3.426-3.35,5.044-5.171c16.994-19.134,24.364-43.211,22.386-65.841c-51.608,52.894-102.809,106.174-153.474,159.957
				c87.646,107.943,81.11,273.666-21.722,389.452c-87.14,98.118-218.035,131.722-327.485,94.515
				c-8.358,11.599-16.644,23.292-25.324,34.673c-23.55,30.889-48.881,60.547-74.221,90.155c9.833,4.662,19.818,8.921,29.951,12.743
				c-0.725,2.221-1.421,4.453-1.976,6.752c-10.807,44.866,6.349,89.891,84.872,106.088c43.438,8.961,62.687-34.443,73.494-79.31
				c0.564-2.344,0.968-4.675,1.331-7.001c23.038-0.49,46.138-2.783,69.105-6.859c0.452,2.246,0.944,4.489,1.598,6.712
				c12.507,42.554,85.223,78.306,128.5,62.276c43.278-16.029,40.723-77.768,28.217-120.321c-0.641-2.18-1.422-4.266-2.228-6.334
				c20.435-11.947,40.208-25.553,59.163-40.741c1.514,1.612,3.06,3.205,4.742,4.696c32.469,28.839,84.105,23.713,115.33-11.445
				c31.224-35.156,30.215-87.036-2.255-115.871c-1.682-1.495-3.446-2.842-5.224-4.154c12.842-20.617,24.019-41.86,33.469-63.561
				C1462.592,1502.464,1464.756,1502.992,1466.996,1503.372z"/>
			
				<linearGradient id="SVGID_00000055665959877723263680000018154667520486476976_" gradientUnits="userSpaceOnUse" x1="1644.8497" y1="1260.993" x2="352.6133" y2="3554.9609" gradientTransform="matrix(0.9673 0.2536 -0.2536 0.9673 243.9598 -706.3089)">
				<stop  offset="0" style="stop-color:#FF9085"/>
				<stop  offset="1" style="stop-color:#FB6FBB"/>
			</linearGradient>
			<path style="fill:url(#SVGID_00000055665959877723263680000018154667520486476976_);" d="M1358.208,1712.083
				c32.469,28.837,84.104,23.714,115.329-11.445c31.224-35.158,30.215-87.035-2.255-115.873c-1.682-1.494-3.445-2.841-5.224-4.154
				c12.843-20.617,24.019-41.858,33.469-63.562c2.149,0.558,4.313,1.087,6.553,1.465c43.732,7.395,87.942-22.981,98.75-67.847
				c10.808-44.867-15.883-87.233-59.615-94.628c-2.286-0.386-4.572-0.609-6.856-0.793c1.336-23.289,0.884-46.498-1.349-69.432
				c2.268-0.635,4.535-1.31,6.797-2.148c43.275-16.028,68.219-63.518,55.712-106.071c-12.507-42.552-57.728-64.054-101.004-48.025
				c-2.218,0.822-4.352,1.777-6.471,2.759c-10.255-19.749-22.214-38.694-35.81-56.688c1.723-1.659,3.427-3.352,5.045-5.172
				c31.224-35.157,30.215-87.036-2.254-115.873c-32.47-28.838-84.104-23.713-115.328,11.444c-1.617,1.821-3.096,3.714-4.541,5.62
				c-19.473-11.376-39.698-21.014-60.519-28.865c0.725-2.22,1.42-4.452,1.975-6.751c10.806-44.865-15.885-87.231-59.618-94.626
				c-43.731-7.395-87.943,22.982-98.75,67.846c-0.564,2.345-0.967,4.676-1.33,7.002c-23.037,0.491-46.137,2.783-69.105,6.86
				c-0.452-2.246-0.944-4.489-1.596-6.715c-12.506-42.552-57.729-64.054-101.005-48.024
				c-43.277,16.031-68.218,63.519-55.713,106.071c0.642,2.18,1.422,4.267,2.229,6.334c-20.435,11.947-40.209,25.553-59.164,40.742
				c-1.514-1.612-3.06-3.204-4.743-4.697c-32.469-28.838-84.103-23.713-115.328,11.444c-31.225,35.158-30.216,87.037,2.253,115.873
				c1.683,1.495,3.446,2.841,5.225,4.154c-12.842,20.617-24.02,41.858-33.469,63.561c-2.148-0.556-4.313-1.085-6.552-1.466
				c-43.732-7.392-87.944,22.982-98.751,67.849c-10.807,44.866,15.886,87.231,59.617,94.626c2.284,0.387,4.571,0.61,6.853,0.794
				c-1.336,23.288-0.884,46.498,1.349,69.432c-2.266,0.634-4.534,1.309-6.796,2.149c-43.275,16.027-68.219,63.518-55.712,106.069
				c12.506,42.553,57.728,64.054,101.003,48.026c2.219-0.823,4.353-1.777,6.471-2.759c10.256,19.75,22.214,38.695,35.81,56.689
				c-1.721,1.66-3.427,3.351-5.044,5.173c-31.224,35.157-30.215,87.035,2.254,115.873c32.469,28.836,84.104,23.714,115.328-11.445
				c1.618-1.82,3.096-3.714,4.54-5.619c19.474,11.375,39.7,21.013,60.521,28.865c-0.724,2.22-1.422,4.452-1.976,6.752
				c-10.805,44.865,15.885,87.231,59.616,94.626c43.732,7.395,87.944-22.982,98.75-67.847c0.565-2.345,0.968-4.677,1.33-7.003
				c23.038-0.49,46.137-2.782,69.105-6.859c0.453,2.245,0.946,4.49,1.599,6.712c12.507,42.553,57.727,64.056,101.003,48.026
				c43.277-16.03,68.219-63.518,55.714-106.072c-0.642-2.179-1.423-4.266-2.23-6.333c20.436-11.947,40.208-25.554,59.165-40.742
				C1354.98,1708.997,1356.526,1710.589,1358.208,1712.083z M889.739,1595.59c-117.889-104.701-121.554-293.057-8.184-420.708
				c113.372-127.65,300.841-146.253,418.73-41.552c117.889,104.702,121.553,293.058,8.184,420.708
				C1195.099,1681.688,1007.628,1700.291,889.739,1595.59z"/>
		</g>
		<g>
			
				<linearGradient id="SVGID_00000143619590323708928890000003206411019881018265_" gradientUnits="userSpaceOnUse" x1="1701.3131" y1="1153.9464" x2="2415.8892" y2="1153.9464" gradientTransform="matrix(0.9673 0.2536 -0.2536 0.9673 243.9598 -706.3089)">
				<stop  offset="0" style="stop-color:#AB316D"/>
				<stop  offset="1" style="stop-color:#792D3D"/>
			</linearGradient>
			<path style="fill:url(#SVGID_00000143619590323708928890000003206411019881018265_);" d="M2125.599,1171.542
				c22.525,20.005,58.345,16.45,80.005-7.939c21.661-24.389,20.961-60.378-1.564-80.382c-1.166-1.037-2.39-1.971-3.623-2.882
				c8.909-14.302,16.662-29.038,23.218-44.093c1.49,0.386,2.991,0.753,4.545,1.016c30.337,5.129,61.006-15.942,68.505-47.067
				c7.497-31.125-11.019-60.515-41.357-65.645c-1.586-0.267-3.172-0.422-4.756-0.55c0.927-16.155,0.614-32.256-0.936-48.166
				c1.573-0.44,3.146-0.909,4.715-1.49c30.02-11.119,47.324-44.063,38.648-73.582c-8.676-29.52-40.047-44.435-70.068-33.316
				c-1.539,0.57-3.019,1.233-4.489,1.914c-7.114-13.7-15.41-26.844-24.842-39.326c1.195-1.152,2.377-2.325,3.5-3.589
				c21.661-24.389,48.385-50.228,25.55-69.877c-52.825-45.455-85.457-26.955-107.118-2.566c-1.122,1.264-2.148,2.576-3.15,3.898
				c-13.509-7.891-27.539-14.577-41.984-20.024c0.503-1.54,0.986-3.088,1.371-4.684c7.496-31.123,21.075-45.469-8.529-53.85
				c-64.558-18.274-93.835,4.15-101.332,35.273c-0.392,1.628-0.671,3.245-0.924,4.858c-15.981,0.34-32.006,1.93-47.939,4.758
				c-0.313-1.558-0.655-3.115-1.108-4.658c-8.676-29.519-40.046-44.434-70.068-33.314c-30.022,11.12-47.324,44.063-38.648,73.582
				c0.444,1.513,0.987,2.96,1.546,4.394c-14.177,8.288-27.893,17.727-41.043,28.263c-1.05-1.118-2.123-2.223-3.29-3.259
				c-22.524-20.004-58.344-16.45-80.004,7.939c-21.661,24.389-20.961,60.378,1.563,80.382c1.167,1.037,2.391,1.971,3.624,2.882
				c-8.908,14.302-16.663,29.037-23.218,44.093c-1.491-0.386-2.992-0.753-4.544-1.017c-30.339-5.129-61.008,15.943-68.506,47.068
				c-7.497,31.125,11.02,60.513,41.357,65.643c1.585,0.268,3.171,0.424,4.754,0.551c-0.926,16.156-0.614,32.256,0.936,48.166
				c-1.572,0.44-3.146,0.909-4.714,1.49c-30.021,11.119-47.324,44.063-38.648,73.582c8.676,29.52,56.422,54.695,86.443,43.576
				c1.538-0.57-13.356-11.493-11.886-12.174c7.114,13.701,15.411,26.844,24.841,39.327c-1.194,1.151-2.377,2.324-3.498,3.588
				c-21.661,24.389-20.961,60.378,1.563,80.382c22.524,20.005,58.344,16.451,80.005-7.938c1.122-1.264,2.148-2.576,3.149-3.899
				c13.51,7.891,27.54,14.578,41.984,20.024c-0.503,1.54-0.986,3.089-1.37,4.684c-7.497,31.123,11.019,60.513,41.357,65.643
				c30.337,5.13,61.008-15.943,68.504-47.067c0.392-1.626,0.671-3.244,0.923-4.858c15.982-0.34,32.007-1.93,47.94-4.758
				c0.314,1.558,0.655,3.114,1.108,4.657c8.677,29.519,40.046,44.436,70.068,33.316c30.022-11.12,47.325-44.063,38.649-73.584
				c-0.445-1.511-0.987-2.958-1.546-4.392c14.176-8.288,27.892-17.727,41.042-28.263
				C2123.359,1169.401,2124.432,1170.506,2125.599,1171.542z M1800.615,1090.729c-81.781-72.633-84.323-203.299-5.676-291.851
				c78.646-88.553,208.698-101.458,290.479-28.826c81.782,72.632,84.324,203.298,5.678,291.85
				C2012.448,1150.456,1882.396,1163.361,1800.615,1090.729z"/>
			
				<linearGradient id="SVGID_00000139982195564963811570000006542946477989990569_" gradientUnits="userSpaceOnUse" x1="1987.2257" y1="1185.7074" x2="2415.8892" y2="1185.7074" gradientTransform="matrix(0.9673 0.2536 -0.2536 0.9673 243.9598 -706.3089)">
				<stop  offset="0" style="stop-color:#AB316D"/>
				<stop  offset="1" style="stop-color:#792D3D"/>
			</linearGradient>
			<path style="fill:url(#SVGID_00000139982195564963811570000006542946477989990569_);" d="M2228.18,1037.261
				c30.337,5.129,61.007-15.943,68.505-47.067c7.497-31.124-11.019-60.515-41.357-65.644c-1.585-0.268-3.172-0.422-4.756-0.55
				c0.928-16.156,0.614-32.255-0.936-48.166c1.573-0.439,3.146-0.909,4.715-1.491c30.02-11.119,72.655-45.826,60.997-74.299
				c-22.127-54.04-62.396-43.717-92.417-32.599c-1.539,0.57-3.019,1.232-4.488,1.913c-7.114-13.7-15.411-26.843-24.843-39.326
				c1.195-1.151,2.377-2.324,3.499-3.587c11.789-13.274,16.902-29.976,15.53-45.674c-35.801,36.693-71.32,73.655-106.467,110.964
				c60.802,74.882,56.267,189.846-15.069,270.168c-60.45,68.066-151.254,91.377-227.181,65.566
				c-5.798,8.046-11.546,16.158-17.567,24.053c-16.337,21.428-33.909,42.002-51.488,62.542c6.821,3.234,13.748,6.188,20.777,8.84
				c-0.503,1.541-0.986,3.089-1.37,4.684c-7.497,31.124,4.404,62.358,58.877,73.595c30.134,6.216,43.487-23.893,50.984-55.018
				c0.392-1.626,0.671-3.243,0.923-4.857c15.982-0.34,32.007-1.931,47.939-4.758c0.313,1.558,0.655,3.114,1.109,4.656
				c8.676,29.52,59.121,54.322,89.142,43.202c30.022-11.12,28.25-53.949,19.574-83.468c-0.445-1.512-0.987-2.959-1.546-4.394
				c14.176-8.288,27.893-17.727,41.042-28.262c1.05,1.118,2.123,2.223,3.29,3.258c22.524,20.006,58.345,16.45,80.006-7.939
				c21.66-24.388,20.96-60.378-1.564-80.382c-1.167-1.037-2.391-1.971-3.624-2.882c8.909-14.302,16.662-29.039,23.218-44.093
				C2225.125,1036.631,2226.626,1036.997,2228.18,1037.261z"/>
			
				<linearGradient id="SVGID_00000036945909457813045000000012362017682853193867_" gradientUnits="userSpaceOnUse" x1="2293.1479" y1="790.5266" x2="1396.7058" y2="2381.8835" gradientTransform="matrix(0.9673 0.2536 -0.2536 0.9673 243.9598 -706.3089)">
				<stop  offset="0" style="stop-color:#FF9085"/>
				<stop  offset="1" style="stop-color:#FB6FBB"/>
			</linearGradient>
			<path style="fill:url(#SVGID_00000036945909457813045000000012362017682853193867_);" d="M2152.712,1182.047
				c22.524,20.005,58.344,16.45,80.005-7.939c21.661-24.389,20.96-60.378-1.564-80.383c-1.167-1.036-2.39-1.971-3.624-2.882
				c8.909-14.302,16.662-29.037,23.218-44.094c1.491,0.387,2.992,0.754,4.546,1.016c30.337,5.13,61.007-15.942,68.504-47.067
				c7.497-31.125-11.018-60.515-41.356-65.645c-1.586-0.267-3.172-0.422-4.756-0.55c0.927-16.156,0.614-32.256-0.936-48.166
				c1.573-0.44,3.146-0.909,4.715-1.49c30.02-11.119,47.324-44.063,38.648-73.583c-8.677-29.519-40.047-44.435-70.068-33.316
				c-1.539,0.57-3.019,1.233-4.489,1.914c-7.114-13.7-15.41-26.843-24.842-39.326c1.195-1.151,2.377-2.325,3.5-3.588
				c21.661-24.389,20.961-60.378-1.563-80.382c-22.525-20.005-58.344-16.45-80.005,7.939c-1.122,1.264-2.148,2.576-3.15,3.899
				c-13.509-7.891-27.539-14.578-41.983-20.024c0.503-1.54,0.985-3.088,1.37-4.683c7.496-31.124-11.02-60.513-41.357-65.643
				c-30.337-5.13-61.007,15.943-68.504,47.066c-0.391,1.627-0.671,3.244-0.923,4.858c-15.981,0.341-32.006,1.931-47.939,4.759
				c-0.313-1.558-0.655-3.114-1.107-4.658c-8.676-29.519-40.047-44.435-70.068-33.315c-30.022,11.121-47.324,44.064-38.649,73.583
				c0.445,1.512,0.986,2.96,1.546,4.394c-14.176,8.288-27.893,17.727-41.043,28.263c-1.051-1.118-2.123-2.223-3.29-3.259
				c-22.524-20.005-58.344-16.45-80.004,7.939c-21.661,24.389-20.961,60.379,1.563,80.383c1.167,1.037,2.39,1.971,3.625,2.882
				c-8.909,14.302-16.663,29.037-23.218,44.094c-1.49-0.386-2.992-0.753-4.545-1.017c-30.337-5.128-61.008,15.943-68.505,47.068
				c-7.497,31.124,11.02,60.513,41.357,65.643c1.585,0.268,3.171,0.424,4.754,0.55c-0.926,16.155-0.613,32.256,0.936,48.166
				c-1.572,0.44-3.146,0.908-4.714,1.491c-30.021,11.118-47.324,44.063-38.648,73.582c8.676,29.52,40.047,44.435,70.067,33.317
				c1.539-0.571,3.02-1.233,4.489-1.914c7.115,13.701,15.41,26.844,24.842,39.326c-1.194,1.151-2.377,2.325-3.499,3.589
				c-21.661,24.389-20.961,60.377,1.564,80.382c22.525,20.004,58.344,16.45,80.005-7.94c1.122-1.263,2.147-2.576,3.15-3.898
				c13.509,7.891,27.54,14.577,41.984,20.024c-0.502,1.54-0.986,3.088-1.371,4.684c-7.495,31.123,11.02,60.514,41.357,65.643
				c30.337,5.13,61.008-15.943,68.504-47.066c0.392-1.627,0.672-3.244,0.923-4.858c15.982-0.34,32.006-1.93,47.939-4.758
				c0.314,1.558,0.656,3.115,1.109,4.656c8.676,29.52,40.046,44.437,70.067,33.317c30.021-11.12,47.324-44.063,38.649-73.583
				c-0.445-1.511-0.987-2.959-1.547-4.393c14.177-8.288,27.893-17.727,41.043-28.263
				C2150.473,1179.906,2151.545,1181.01,2152.712,1182.047z M1827.729,1101.234c-81.781-72.633-84.324-203.298-5.677-291.851
				c78.647-88.552,208.698-101.458,290.479-28.825c81.781,72.633,84.323,203.298,5.677,291.851
				C2039.561,1160.961,1909.51,1173.866,1827.729,1101.234z"/>
		</g>
		<g>
			<g>
				<path style="fill:#BFC8D6;" d="M3197.194,2956.22l-2640.411-22.823v67.53c0,18.329,11.516,33.914,27.114,36.692l746.629,132.979
					c8.861,1.578,17.846,1.997,26.788,1.248L3168.5,3020.229c16.17-1.353,28.693-16.987,28.693-35.819V2956.22z"/>
				<g>
					<path style="fill:#BFC8D6;" d="M2225.519,2848L547.324,2971.539c-30.03,2.21-54.447-21.279-54.447-52.472V1669.364
						c0-31.193,24.417-56.48,54.447-56.48l59.37,34.219l1618.824-34.219c24.74,0,44.744,22.859,44.744,51.057V2793.65
						C2270.262,2821.847,2250.259,2846.179,2225.519,2848z"/>
					<path style="fill:#FFFFFF;" d="M2252.277,2848L574.083,2971.539c-30.031,2.21-54.447-21.279-54.447-52.472V1669.364
						c0-31.193,24.416-56.48,54.447-56.48h1678.194c24.741,0,44.744,22.859,44.744,51.057V2793.65
						C2297.021,2821.847,2277.018,2846.179,2252.277,2848z"/>
					<path style="fill:#D8DEE8;" d="M2199.997,2768.354l-1563.063,107.31c-24.438,1.677-44.297-17.602-44.297-43.067V1738.48
						c0-25.465,19.859-46.194,44.297-46.3l1563.063-6.738c20.409-0.088,36.917,18.643,36.917,41.837v996.545
						C2236.914,2747.017,2220.406,2766.953,2199.997,2768.354z"/>
					<g>
						<polygon style="fill:#FFFFFF;" points="1191.299,1794.862 769.465,1795.961 769.403,1755.742 1191.239,1755.879 						"/>
						<polygon style="fill:#FFFFFF;" points="1389.937,1783.219 1292.49,1783.39 1292.447,1755.912 1389.895,1755.943 						"/>
						<polygon style="fill:#FFFFFF;" points="1389.996,1821.115 1292.549,1821.568 1292.506,1794.09 1389.953,1793.839 						"/>
						<polygon style="fill:#FFFFFF;" points="1875.616,1818.858 1497.564,1820.615 1497.522,1793.563 1875.575,1792.593 						"/>
						<polygon style="fill:#FFFFFF;" points="1937.665,1854.882 1563.374,1857.704 1563.332,1830.79 1937.624,1828.747 						"/>
						<polygon style="fill:#FFFFFF;" points="1937.721,1891.195 1563.432,1895.099 1563.39,1868.185 1937.681,1865.06 						"/>
						<polygon style="fill:#FFFFFF;" points="1937.777,1927.508 1563.49,1932.494 1563.448,1905.58 1937.737,1901.373 						"/>
						<polygon style="fill:#FFFFFF;" points="1390.054,1859.011 1292.608,1859.745 1292.565,1832.267 1390.012,1831.735 						"/>
						<polygon style="fill:#FFFFFF;" points="1390.113,1896.907 1292.667,1897.923 1292.624,1870.445 1390.071,1869.632 						"/>
						<polygon style="fill:#FFFFFF;" points="1390.171,1934.803 1292.726,1936.101 1292.683,1908.623 1390.129,1907.528 						"/>
						<polygon style="fill:#FFFFFF;" points="1390.23,1972.699 1292.785,1974.279 1292.742,1946.801 1390.188,1945.424 						"/>
						<polygon style="fill:#FFFFFF;" points="1651.351,1968.466 1411.495,1972.354 1411.453,1945.124 1651.309,1941.734 						"/>
						<polygon style="fill:#FFFFFF;" points="1390.288,2010.595 1292.844,2012.457 1292.801,1984.979 1390.246,1983.32 						"/>
						<polygon style="fill:#FFFFFF;" points="1390.347,2048.491 1292.903,2050.635 1292.86,2023.157 1390.305,2021.216 						"/>
						<polygon style="fill:#FFFFFF;" points="1390.406,2086.387 1292.962,2088.813 1292.919,2061.334 1390.364,2059.112 						"/>
						<polygon style="fill:#FFFFFF;" points="1763.785,2003.46 1497.854,2008.54 1497.813,1981.489 1763.745,1976.962 						"/>
						<polygon style="fill:#FFFFFF;" points="1901.998,2037.238 1563.663,2044.679 1563.621,2017.765 1901.957,2011.027 						"/>
						<polygon style="fill:#FFFFFF;" points="1902.054,2073.654 1563.721,2082.074 1563.679,2055.16 1902.014,2047.444 						"/>
						<polygon style="fill:#FFFFFF;" points="1390.464,2124.283 1293.021,2126.99 1292.978,2099.512 1390.422,2097.008 						"/>
						<polygon style="fill:#FFFFFF;" points="1390.523,2162.179 1293.08,2165.168 1293.037,2137.69 1390.481,2134.904 						"/>
						<polygon style="fill:#FFFFFF;" points="1390.581,2200.076 1293.139,2203.346 1293.096,2175.868 1390.539,2172.801 						"/>
						<polygon style="fill:#FFFFFF;" points="1390.64,2237.972 1293.198,2241.524 1293.155,2214.046 1390.598,2210.697 						"/>
						<polygon style="fill:#FFFFFF;" points="1390.698,2275.868 1293.257,2279.701 1293.214,2252.224 1390.656,2248.593 						"/>
						<polygon style="fill:#FFFFFF;" points="1390.757,2313.764 1293.316,2317.879 1293.273,2290.401 1390.715,2286.489 						"/>
						<polygon style="fill:#FFFFFF;" points="1390.816,2351.66 1293.375,2356.057 1293.332,2328.579 1390.773,2324.385 						"/>
						<polygon style="fill:#FFFFFF;" points="1390.874,2389.556 1293.434,2394.235 1293.391,2366.757 1390.832,2362.281 						"/>
						<polygon style="fill:#FFFFFF;" points="1390.933,2427.452 1293.493,2432.413 1293.45,2404.935 1390.891,2400.177 						"/>
						<polygon style="fill:#FFFFFF;" points="1390.991,2465.348 1293.552,2470.591 1293.509,2443.113 1390.949,2438.073 						"/>
						<polygon style="fill:#FFFFFF;" points="1391.05,2503.244 1293.611,2508.769 1293.568,2481.291 1391.008,2475.969 						"/>
						<polygon style="fill:#FFFFFF;" points="1391.108,2541.14 1293.67,2546.946 1293.627,2519.469 1391.066,2513.865 						"/>
						<polygon style="fill:#FFFFFF;" points="1391.167,2579.037 1293.729,2585.124 1293.686,2557.646 1391.125,2551.761 						"/>
						<polygon style="fill:#FFFFFF;" points="1391.226,2616.933 1293.788,2623.302 1293.745,2595.824 1391.183,2589.658 						"/>
						<polygon style="fill:#FFFFFF;" points="1391.284,2654.829 1293.847,2661.48 1293.804,2634.002 1391.242,2627.554 						"/>
						<polygon style="fill:#FFFFFF;" points="1391.343,2692.725 1293.906,2699.658 1293.863,2672.18 1391.301,2665.45 						"/>
						<polygon style="fill:#FFFFFF;" points="1391.401,2730.621 1293.965,2737.836 1293.922,2710.357 1391.359,2703.346 						"/>
						<polygon style="fill:#FFFFFF;" points="1391.46,2768.517 1294.024,2776.013 1293.981,2748.535 1391.418,2741.242 						"/>
						<polygon style="fill:#FFFFFF;" points="1676.305,1782.715 1410.54,1783.182 1410.498,1755.95 1676.264,1756.036 						"/>
						<polygon style="fill:#FFFFFF;" points="1876.744,2548.7 1498.726,2572.317 1498.684,2545.265 1876.703,2522.435 						"/>
						<polygon style="fill:#FFFFFF;" points="1938.787,2581.14 1564.53,2605.604 1564.488,2578.69 1938.747,2555.005 						"/>
						<polygon style="fill:#FFFFFF;" points="1938.843,2617.453 1564.588,2643 1564.546,2616.085 1938.803,2591.317 						"/>
						<polygon style="fill:#FFFFFF;" points="2100.176,2642.291 1735.611,2668.23 1735.57,2641.671 2100.136,2616.491 						"/>
						<polygon style="fill:#FFFFFF;" points="2100.231,2678.138 1735.668,2705.131 1735.627,2678.572 2100.191,2652.338 						"/>
						<polygon style="fill:#FFFFFF;" points="2100.286,2713.984 1735.725,2742.031 1735.684,2715.473 2100.247,2688.184 						"/>
						<polygon style="fill:#FFFFFF;" points="1677.45,2524.079 1411.709,2539.913 1411.667,2512.681 1677.409,2497.4 						"/>
						<polygon style="fill:#FFFFFF;" points="1876.123,2147.287 1498.087,2158.881 1498.045,2131.829 1876.083,2121.022 						"/>
						<polygon style="fill:#FFFFFF;" points="1938.17,2181.698 1563.894,2194.259 1563.853,2167.345 1938.129,2155.563 						"/>
						<polygon style="fill:#FFFFFF;" points="1938.226,2218.011 1563.952,2231.654 1563.91,2204.74 1938.186,2191.875 						"/>
						<polygon style="fill:#FFFFFF;" points="1938.282,2254.324 1564.01,2269.049 1563.968,2242.135 1938.242,2228.189 						"/>
						<polygon style="fill:#FFFFFF;" points="1651.867,2302.736 1412.021,2312.866 1411.979,2285.635 1651.826,2276.004 						"/>
						<polygon style="fill:#FFFFFF;" points="1764.297,2334.806 1498.377,2346.806 1498.335,2319.755 1764.257,2308.308 						"/>
						<polygon style="fill:#FFFFFF;" points="1902.504,2364.989 1564.183,2381.234 1564.141,2354.32 1902.464,2338.779 						"/>
						<polygon style="fill:#FFFFFF;" points="1902.561,2401.406 1564.241,2418.629 1564.199,2391.715 1902.52,2375.195 						"/>
						<polygon style="fill:#FFFFFF;" points="1977.618,2433.787 1643.371,2451.77 1643.329,2425.02 1977.578,2407.733 						"/>
						<polygon style="fill:#FFFFFF;" points="1977.674,2469.988 1643.428,2488.937 1643.387,2462.187 1977.634,2443.933 						"/>
						<polygon style="fill:#FFFFFF;" points="1676.82,2116.329 1411.066,2123.711 1411.024,2096.479 1676.779,2089.65 						"/>
						<polygon style="fill:#FFFFFF;" points="1191.393,1855.774 949.946,1857.508 949.885,1817.817 1191.333,1816.791 						"/>
						<polygon style="fill:#FFFFFF;" points="887.496,1857.957 932.971,1857.63 932.91,1817.89 887.434,1818.083 						"/>
						<polygon style="fill:#FFFFFF;" points="1191.479,1911.813 950.034,1914.564 949.973,1874.873 1191.419,1872.829 						"/>
						<polygon style="fill:#FFFFFF;" points="887.585,1915.275 933.059,1914.757 932.998,1875.016 887.523,1875.401 						"/>
						<polygon style="fill:#FFFFFF;" points="1191.566,1967.851 950.122,1971.619 950.061,1931.928 1191.506,1928.868 						"/>
						<polygon style="fill:#FFFFFF;" points="887.673,1972.594 933.148,1971.884 933.086,1932.143 887.612,1932.72 						"/>
						<polygon style="fill:#FFFFFF;" points="1192.181,2365.627 770.375,2384.82 770.313,2344.601 1192.121,2326.644 						"/>
						<polygon style="fill:#FFFFFF;" points="1192.275,2426.539 950.844,2438.629 950.783,2398.939 1192.215,2387.555 						"/>
						<polygon style="fill:#FFFFFF;" points="888.398,2441.757 933.87,2439.479 933.809,2399.739 888.337,2401.883 						"/>
						<polygon style="fill:#FFFFFF;" points="1192.362,2482.577 950.932,2495.685 950.871,2455.994 1192.301,2443.594 						"/>
						<polygon style="fill:#FFFFFF;" points="888.487,2499.075 933.959,2496.606 933.897,2456.866 888.425,2459.202 						"/>
						<polygon style="fill:#FFFFFF;" points="1192.448,2538.616 951.02,2552.74 950.959,2513.05 1192.388,2499.632 						"/>
						<polygon style="fill:#FFFFFF;" points="888.575,2556.394 934.047,2553.733 933.985,2513.993 888.514,2516.52 						"/>
						<polygon style="fill:#FFFFFF;" points="1191.653,2024.269 769.831,2032.641 769.769,1992.422 1191.593,1985.286 						"/>
						<polygon style="fill:#FFFFFF;" points="1191.747,2085.181 950.307,2091.078 950.245,2051.387 1191.687,2046.197 						"/>
						<polygon style="fill:#FFFFFF;" points="887.859,2092.603 933.333,2091.492 933.271,2051.752 887.797,2052.729 						"/>
						<polygon style="fill:#FFFFFF;" points="1191.834,2141.219 950.395,2148.133 950.334,2108.442 1191.774,2102.236 						"/>
						<polygon style="fill:#FFFFFF;" points="887.947,2149.921 933.421,2148.619 933.359,2108.879 887.886,2110.048 						"/>
						<polygon style="fill:#FFFFFF;" points="1192.008,2254.024 950.573,2262.985 950.511,2223.294 1191.948,2215.041 						"/>
						<polygon style="fill:#FFFFFF;" points="888.125,2265.303 933.599,2263.615 933.537,2223.875 888.064,2225.429 						"/>
						<polygon style="fill:#FFFFFF;" points="1192.095,2310.063 950.661,2320.041 950.599,2280.35 1192.035,2271.08 						"/>
						<polygon style="fill:#FFFFFF;" points="888.214,2322.621 933.687,2320.742 933.625,2281.001 888.153,2282.748 						"/>
						<polygon style="fill:#FFFFFF;" points="1191.921,2197.258 950.483,2205.189 950.422,2165.498 1191.86,2158.275 						"/>
						<polygon style="fill:#FFFFFF;" points="888.036,2207.24 933.509,2205.746 933.448,2166.006 887.974,2167.366 						"/>
						<polygon style="fill:#FFFFFF;" points="1192.535,2594.635 770.74,2621.088 770.678,2580.869 1192.475,2555.652 						"/>
						<polygon style="fill:#FFFFFF;" points="1192.629,2655.547 951.204,2671.793 951.143,2632.103 1192.569,2616.563 						"/>
						<polygon style="fill:#FFFFFF;" points="888.76,2675.995 934.231,2672.935 934.17,2633.195 888.699,2636.122 						"/>
						<polygon style="fill:#FFFFFF;" points="1192.716,2711.585 951.292,2728.849 951.231,2689.158 1192.655,2672.602 						"/>
						<polygon style="fill:#FFFFFF;" points="888.849,2733.314 934.32,2730.062 934.258,2690.322 888.787,2693.44 						"/>
						<polygon style="fill:#FFFFFF;" points="1192.802,2767.624 951.381,2785.904 951.319,2746.213 1192.742,2728.641 						"/>
						<polygon style="fill:#FFFFFF;" points="888.937,2790.632 934.408,2787.189 934.346,2747.449 888.876,2750.759 						"/>
						<polygon style="fill:#FFFFFF;" points="1244.058,2763.937 1234.768,2764.64 1233.209,1755.893 1242.5,1755.896 						"/>
					</g>
					<path style="fill:#FFFFFF;" d="M1472.449,1647.066c0,11.612-8.638,21.053-19.304,21.086
						c-10.68,0.034-19.346-9.373-19.346-21.011c0-11.638,8.667-21.079,19.346-21.087
						C1463.812,1626.046,1472.449,1635.453,1472.449,1647.066z"/>
					<path style="opacity:0.48;fill:#FFFFFF;" d="M574.077,2971.539l1669.704-122.914l8.497-0.625
						c11.351-0.836,21.673-6.447,29.557-14.959c-120.154-6.575-194.783-49.215-242.925-93.273
						c-96.678-88.479-79.909-175.733-184.166-233.906c-130.035-72.56-232.283,19.382-330.959-71.333
						c-59.822-54.998-30.452-96.01-104.064-178.196c-81.53-91.029-134.611-60.43-216.548-142.356
						c-103.602-103.591-51.787-184.187-141.028-258.561c-108.262-90.228-225.018-6.717-328.076-93.248
						c-44.45-37.321-68.84-91.579-81.575-149.284h-78.41c-30.031,0-54.448,25.287-54.448,56.48v1249.704
						C519.636,2950.257,544.048,2973.745,574.077,2971.539z"/>
				</g>
				
					<linearGradient id="SVGID_00000164498827325645104700000012210600558776071822_" gradientUnits="userSpaceOnUse" x1="556.7826" y1="2975.6931" x2="3197.1936" y2="2975.6931">
					<stop  offset="0.494" style="stop-color:#EBEFF2"/>
					<stop  offset="1" style="stop-color:#FFFFFF"/>
				</linearGradient>
				<path style="fill:url(#SVGID_00000164498827325645104700000012210600558776071822_);" d="M2331.347,2841.148L556.783,2971.184
					l773.743,137.808c8.861,1.578,17.846,1.997,26.788,1.249l1839.88-154.02l-837.619-114.189
					C2350.208,2840.754,2340.76,2840.458,2331.347,2841.148z"/>
				<polygon style="fill:#D8DEE8;" points="815.719,2972.302 2293.097,2862.43 2750.332,2924.261 1285.681,3041.71 				"/>
			</g>
		</g>
		<g>
			
				<linearGradient id="SVGID_00000173867172056042575110000010469257686229304251_" gradientUnits="userSpaceOnUse" x1="3138.6863" y1="503.5287" x2="3088.0198" y2="-174.9534" gradientTransform="matrix(-0.6052 0.7961 0.7961 0.6052 3013.1563 -507.3024)">
				<stop  offset="0" style="stop-color:#40447E"/>
				<stop  offset="0.9964" style="stop-color:#3C3B6B"/>
			</linearGradient>
			<path style="fill:url(#SVGID_00000173867172056042575110000010469257686229304251_);" d="M1486.419,2285
				c13.49,10.255,32.739,7.633,42.994-5.857l3.347-4.403c10.255-13.49,7.633-32.739-5.857-42.994L1033.07,1856.33
				c-13.49-10.255-32.739-7.633-42.994,5.857l-3.347,4.403c-10.255,13.49-7.633,32.739,5.857,42.994L1486.419,2285z"/>
			
				<linearGradient id="SVGID_00000075147670584568159560000004949914396588871357_" gradientUnits="userSpaceOnUse" x1="3114.1108" y1="209.305" x2="3114.1108" y2="477.7298" gradientTransform="matrix(-0.6052 0.7961 0.7961 0.6052 3013.1563 -507.3024)">
				<stop  offset="0.0036" style="stop-color:#E38DDD"/>
				<stop  offset="1" style="stop-color:#9571F6"/>
			</linearGradient>
			<path style="fill:url(#SVGID_00000075147670584568159560000004949914396588871357_);" d="M1425.538,2357.712
				c13.49,10.255,32.739,7.633,42.994-5.857l117.088-154.021c10.255-13.49,7.633-32.739-5.857-42.994l-22.154-16.842
				c-13.49-10.255-32.739-7.633-42.994,5.857l-117.088,154.021c-10.255,13.49-7.633,32.739,5.857,42.994L1425.538,2357.712z"/>
			
				<linearGradient id="SVGID_00000134959824329818741260000008653280487038768533_" gradientUnits="userSpaceOnUse" x1="2951.6545" y1="806.4652" x2="3276.5679" y2="806.4652" gradientTransform="matrix(-0.6052 0.7961 0.7961 0.6052 3013.1563 -507.3024)">
				<stop  offset="0.0036" style="stop-color:#E38DDD"/>
				<stop  offset="1" style="stop-color:#9571F6"/>
			</linearGradient>
			<path style="fill:url(#SVGID_00000134959824329818741260000008653280487038768533_);" d="M1432.077,2406.698l480.37,365.181
				c11.419,8.681,24.989,12.672,38.328,12.407c18.11-0.333,35.975-8.749,47.781-24.28l122.243-160.802
				c20.503-26.97,15.256-65.485-11.714-85.988l-480.37-365.181c-19.704-14.979-45.64-16.259-66.114-5.295
				c-7.574,4.006-14.465,9.656-19.989,16.922l-122.243,160.802C1399.866,2347.435,1405.107,2386.196,1432.077,2406.698z"/>
			<g style="opacity:0.5;">
				
					<linearGradient id="SVGID_00000057112040416712904220000001374543521223417760_" gradientUnits="userSpaceOnUse" x1="3073.019" y1="1212.1553" x2="3014.2007" y2="424.5085" gradientTransform="matrix(-0.6052 0.7961 0.7961 0.6052 3013.1563 -507.3024)">
					<stop  offset="0.0036" style="stop-color:#E38DDD"/>
					<stop  offset="1" style="stop-color:#9571F6"/>
				</linearGradient>
				<path style="fill:url(#SVGID_00000057112040416712904220000001374543521223417760_);" d="M2012.456,2583.812
					c9.804,7.453,23.793,5.547,31.246-4.257l0,0c7.453-9.804,5.547-23.793-4.257-31.246l-398.137-302.667
					c-9.804-7.453-23.793-5.547-31.246,4.257l0,0c-7.453,9.804-5.547,23.793,4.257,31.246L2012.456,2583.812z"/>
				
					<linearGradient id="SVGID_00000125584943247976233450000000093035082752753538_" gradientUnits="userSpaceOnUse" x1="3212.3975" y1="1201.7104" x2="3153.5791" y2="414.0638" gradientTransform="matrix(-0.6052 0.7961 0.7961 0.6052 3013.1563 -507.3024)">
					<stop  offset="0.0036" style="stop-color:#E38DDD"/>
					<stop  offset="1" style="stop-color:#9571F6"/>
				</linearGradient>
				<path style="fill:url(#SVGID_00000125584943247976233450000000093035082752753538_);" d="M1927.632,2695.392
					c9.804,7.453,23.793,5.547,31.246-4.257l0,0c7.453-9.804,5.547-23.793-4.257-31.246l-398.137-302.667
					c-9.804-7.453-23.793-5.547-31.246,4.257l0,0c-7.453,9.804-5.547,23.793,4.257,31.246L1927.632,2695.392z"/>
			</g>
			
				<linearGradient id="SVGID_00000039849092862899416430000001790262175413788551_" gradientUnits="userSpaceOnUse" x1="3117.3665" y1="-152.1777" x2="3101.1406" y2="-369.4572" gradientTransform="matrix(-0.6052 0.7961 0.7961 0.6052 3013.1563 -507.3024)">
				<stop  offset="0" style="stop-color:#40447E"/>
				<stop  offset="0.9964" style="stop-color:#3C3B6B"/>
			</linearGradient>
			<path style="fill:url(#SVGID_00000039849092862899416430000001790262175413788551_);" d="M909.591,1899.784l-93.618-106.873
				c-4.178-4.768-4.368-11.775-0.533-16.821l14.868-19.558l12.379-16.284l15.072-19.826c3.836-5.046,10.639-6.737,16.351-3.986
				l128.048,61.639c3.979,1.916,7.23,5.043,9.303,8.943l17.073,32.684c5.673,10.677,4.131,23.306-3.186,32.931l-12.755,16.779
				l-12.379,16.284l-12.551,16.51c-7.317,9.625-19.08,14.484-30.885,11.874l-36.308-7.897
				C916.156,1905.228,912.502,1903.105,909.591,1899.784z"/>
			
				<linearGradient id="SVGID_00000059988184541438308780000001435776542295406745_" gradientUnits="userSpaceOnUse" x1="3111.0715" y1="1177.5371" x2="3056.2886" y2="443.9306" gradientTransform="matrix(-0.6052 0.7961 0.7961 0.6052 3013.1563 -507.3024)">
				<stop  offset="0.0036" style="stop-color:#E38DDD"/>
				<stop  offset="1" style="stop-color:#9571F6"/>
			</linearGradient>
			<path style="opacity:0.3;fill:url(#SVGID_00000059988184541438308780000001435776542295406745_);" d="M1950.834,2784.208
				c18.111-0.333,35.915-8.67,47.721-24.201l122.243-160.802c20.503-26.97,15.256-65.485-11.714-85.988l-480.37-365.181
				c-19.704-14.979-45.582-16.216-66.057-5.252c36.846,18.792,91.769,44.519,110.546,84.038
				c17.909,37.703,69.891,104.521,144.393,129.04c74.502,24.519,213.642,109.771,228.04,188.004
				C2060.051,2622.078,2069.363,2682.667,1950.834,2784.208z"/>
		</g>
		<g>
			
				<linearGradient id="SVGID_00000000195817227336614650000005345210409590839955_" gradientUnits="userSpaceOnUse" x1="-1490.1616" y1="-1439.666" x2="-1821.9236" y2="-148.1651" gradientTransform="matrix(0.7054 -0.7088 0.7088 0.7054 3676.7451 1572.4792)">
				<stop  offset="0" style="stop-color:#40447E"/>
				<stop  offset="0.9964" style="stop-color:#3C3B6B"/>
			</linearGradient>
			<path style="fill:url(#SVGID_00000000195817227336614650000005345210409590839955_);" d="M1800.832,1938.393l-199.606-52.943
				l-53.952-199.335l209.742-188.444c12.686-12.751-10.01-42.62-27.981-43.351c-87.622-3.565-176.425,29.134-241.974,98.064
				c-118.03,124.118-115.071,321.111,6.476,441.788c123.709,122.823,323.563,122.237,446.549-1.372
				c65-65.33,106.569-142.482,102.678-227.816c-0.82-17.992-33.63-35.948-46.334-23.18L1800.832,1938.393z"/>
			
				<linearGradient id="SVGID_00000150078181464142729780000007875195473551857847_" gradientUnits="userSpaceOnUse" x1="-2210.73" y1="-1624.7825" x2="-2542.5818" y2="-332.9321" gradientTransform="matrix(0.7054 -0.7088 0.7088 0.7054 3676.7451 1572.4792)">
				<stop  offset="0" style="stop-color:#40447E"/>
				<stop  offset="0.9964" style="stop-color:#3C3B6B"/>
			</linearGradient>
			<path style="fill:url(#SVGID_00000150078181464142729780000007875195473551857847_);" d="M1493.66,1881.021l-727.431,680.5
				c-46.676,44.73-47.374,119.117-1.545,164.715l0,0c45.816,45.585,120.172,44.526,164.672-2.344l677.285-730.461L1493.66,1881.021z
				"/>
			
				<linearGradient id="SVGID_00000074418643596700478400000006151038230903310482_" gradientUnits="userSpaceOnUse" x1="-708.7873" y1="8179.5381" x2="-793.7647" y2="7233.7056" gradientTransform="matrix(0.7054 -0.7088 0.7088 0.7054 3676.7451 1572.4792)">
				<stop  offset="0.0036" style="stop-color:#F36F56"/>
				<stop  offset="1" style="stop-color:#FFC444"/>
			</linearGradient>
			<path style="fill:url(#SVGID_00000074418643596700478400000006151038230903310482_);" d="M1812.339,1951.257l-199.605-52.943
				l-53.952-199.335l195.595-196.587c12.686-12.75,4.137-34.476-13.834-35.208c-87.622-3.565-176.425,29.134-241.973,98.064
				c-118.03,124.119-115.071,321.112,6.475,441.788c123.709,122.823,323.563,122.237,446.548-1.372
				c65-65.33,95.512-151.954,91.621-237.288c-0.821-17.992-22.574-26.476-35.277-13.708L1812.339,1951.257z"/>
			
				<linearGradient id="SVGID_00000013154230087412933450000003171144194979337647_" gradientUnits="userSpaceOnUse" x1="-1461.4325" y1="8245.1963" x2="-1546.3922" y2="7299.561" gradientTransform="matrix(0.7054 -0.7088 0.7088 0.7054 3676.7451 1572.4792)">
				<stop  offset="0.0036" style="stop-color:#F36F56"/>
				<stop  offset="1" style="stop-color:#FFC444"/>
			</linearGradient>
			<path style="fill:url(#SVGID_00000013154230087412933450000003171144194979337647_);" d="M1505.167,1893.885l-727.431,680.5
				c-46.676,44.73-47.374,119.117-1.545,164.715v0c45.816,45.585,120.172,44.526,164.672-2.344l677.285-730.461L1505.167,1893.885z"
				/>
			
				<linearGradient id="SVGID_00000023280619402764736970000005143323113247496846_" gradientUnits="userSpaceOnUse" x1="-1847.2102" y1="-984.0402" x2="-1835.3616" y2="-1232.8618" gradientTransform="matrix(0.7054 -0.7088 0.7088 0.7054 3676.7451 1572.4792)">
				<stop  offset="0.0036" style="stop-color:#F36F56"/>
				<stop  offset="1" style="stop-color:#FFC444"/>
			</linearGradient>
			<path style="opacity:0.4;fill:url(#SVGID_00000023280619402764736970000005143323113247496846_);" d="M1541.011,1970.401
				c18.296,18.203,18.37,47.792,0.167,66.088c-18.203,18.296-47.792,18.371-66.088,0.167c-18.296-18.203-18.371-47.792-0.167-66.088
				S1522.716,1952.197,1541.011,1970.401z"/>
			
				<linearGradient id="SVGID_00000154409539180257656790000014715489536970213547_" gradientUnits="userSpaceOnUse" x1="-2343.6748" y1="-980.3432" x2="-2331.6243" y2="-1233.407" gradientTransform="matrix(0.7054 -0.7088 0.7088 0.7054 3676.7451 1572.4792)">
				<stop  offset="0.0036" style="stop-color:#F36F56"/>
				<stop  offset="1" style="stop-color:#FFC444"/>
			</linearGradient>
			<path style="opacity:0.4;fill:url(#SVGID_00000154409539180257656790000014715489536970213547_);" d="M1481.224,2069.684
				l-588.645,591.63c-10.768,10.823-28.271,10.867-39.094,0.099l0,0c-10.823-10.768-10.867-28.271-0.099-39.094l588.645-591.63
				L1481.224,2069.684z"/>
		</g>
	</g>
</g>
</svg>
